<?xml version="1.0" standalone="no"?>
<!DOCTYPE svg PUBLIC "-//W3C//DTD SVG 20010904//EN"
 "http://www.w3.org/TR/2001/REC-SVG-20010904/DTD/svg10.dtd">
<svg version="1.0" xmlns="http://www.w3.org/2000/svg"
 width="512.000000pt" height="512.000000pt" viewBox="0 0 512.000000 512.000000"
 preserveAspectRatio="xMidYMid meet">

<g transform="translate(0.000000,512.000000) scale(0.100000,-0.100000)"
fill="#000000" stroke="none">
<path d="M572 5100 c-198 -52 -355 -217 -397 -417 -13 -58 -15 -388 -15 -2225
l0 -2158 -20 0 c-67 0 -140 -79 -140 -150 0 -50 35 -107 80 -130 39 -20 55
-20 1677 -20 1539 0 1640 1 1673 18 126 63 97 256 -42 278 l-38 7 0 1363 0
1364 25 -10 c94 -36 190 -114 244 -199 16 -25 40 -75 53 -111 l23 -65 5 -825
c5 -784 6 -827 24 -870 51 -118 135 -209 241 -260 260 -124 561 11 656 295 11
32 15 258 19 1144 l5 1104 53 18 c146 50 282 169 351 310 63 129 71 180 71
507 0 216 -3 290 -14 315 -17 43 -68 85 -111 93 l-35 6 0 176 c0 157 -2 180
-21 218 -15 31 -32 48 -63 63 -56 27 -90 26 -141 -4 -68 -39 -75 -64 -75 -274
l0 -181 -169 0 -169 0 -4 189 c-3 173 -5 192 -24 217 -70 94 -189 96 -251 4
-22 -31 -23 -42 -23 -221 0 -173 -1 -189 -17 -189 -37 -1 -103 -40 -123 -72
-19 -31 -20 -50 -20 -343 0 -347 4 -375 67 -505 65 -134 229 -274 367 -315
l41 -12 3 -1069 c2 -958 1 -1073 -14 -1111 -47 -126 -225 -147 -300 -35 -18
26 -19 70 -25 842 -5 800 -6 816 -27 894 -76 275 -279 484 -549 566 l-73 22 0
650 c0 715 1 708 -62 832 -45 89 -154 194 -248 239 -41 19 -102 40 -134 46
-40 8 -416 11 -1160 10 -1053 0 -1104 -1 -1174 -19z m2300 -290 c59 -17 120
-69 151 -129 l27 -55 0 -2163 0 -2163 -1295 0 -1295 0 2 2168 c3 2130 3 2168
23 2207 26 54 88 111 138 129 36 12 194 15 1127 15 719 1 1098 -3 1122 -9z
m1948 -818 c0 -210 -8 -256 -61 -336 -65 -97 -205 -158 -320 -137 -119 21
-219 101 -259 207 -18 48 -20 78 -20 254 l0 200 330 0 330 0 0 -188z"/>
<path d="M915 4473 c-38 -9 -83 -53 -99 -95 -15 -38 -16 -115 -14 -714 l3
-671 29 -37 c53 -70 5 -67 935 -64 830 3 840 3 867 24 15 11 37 33 48 48 21
27 21 36 21 721 0 685 0 694 -21 721 -11 15 -33 37 -48 48 -27 21 -36 21 -864
22 -460 1 -846 0 -857 -3z m1495 -788 l0 -495 -655 0 -655 0 0 488 c0 269 3
492 7 495 3 4 298 7 655 7 l648 0 0 -495z"/>
<path d="M1690 2408 c-45 -23 -46 -25 -232 -393 -165 -326 -187 -376 -187
-419 -1 -60 26 -107 73 -130 28 -13 74 -16 270 -16 130 0 236 -2 236 -5 0 -2
-54 -113 -120 -245 -102 -205 -120 -248 -120 -288 0 -98 92 -170 183 -142 23
7 55 27 72 45 16 17 109 191 205 384 158 318 175 357 174 402 -1 57 -23 93
-75 124 -31 18 -55 20 -271 23 l-237 3 121 242 c103 206 121 249 122 290 0
110 -113 177 -214 125z"/>
</g>
</svg>
