<?xml version="1.0" encoding="UTF-8"?>
<svg id="Layer_2" data-name="Layer 2" xmlns="http://www.w3.org/2000/svg" viewBox="0 0 100 100">
  <defs>
    <style>
      .cls-1, .cls-2 {
        stroke-width: 0px;
      }

      .cls-2 {
        fill: #fff;
      }
    </style>
  </defs>
  <g id="Layer_1-2" data-name="Layer 1">
    <g>
      <path class="cls-2" d="m100,100c-33.33,0-66.67,0-100,0C0,66.67,0,33.33,0,0c33.33,0,66.67,0,100,0,0,33.33,0,66.67,0,100Zm-31.38-57.85c-.84-5.75-3.73-10.75-10.66-11.26-6.11-.45-12.31-.34-18.42.12-4.94.38-8.08,3.57-9.44,8.39-.35,1.23-.81,2.43-.99,2.95h-7.18c-.03.47-.07.94-.1,1.4,1.18.61,2.37,1.21,3.68,1.88-5.19,7.1-4.62,14.76-3.46,22.38.22,1.42,1.93,3.55,3.1,3.65,1.58.13,4.2-.99,4.77-2.28,1.28-2.93,3.23-3.32,5.92-3.3,8.66.08,17.32.07,25.98.01,2.8-.02,5.13.08,6.35,3.43.43,1.18,2.95,2.39,4.34,2.2,1.31-.17,3.22-2.03,3.41-3.36,1.09-7.6,1.96-15.29-2.98-22.12-.15-.2-.02-.61-.02-.78,1.23-.75,2.37-1.45,3.51-2.15l-.37-1.68c-2.25.15-4.49.31-7.44.51Zm10.24-33.75c-2.41-.49-4.94-.44-6.89-1.5-5.27-2.84-11.32-3.14-14.68.68-3.39,3.85-7.78,4.86-12.21,5.37C23.97,15.41,8.71,32.58,9.06,53.88c.34,20.36,16.61,37.39,37.13,38.86,20.81,1.49,39.38-13.4,42.4-34.25,1.67-11.5-2.06-21.28-10.24-29.42,5.52,7.83,7.17,16.67,6.76,26.03-.79,18.38-16.79,33.68-35.48,33.94-19,.27-35.46-14.6-36.71-33.17-1.32-19.54,12.42-36.92,31.14-38.75,3.54-.35,8.47.24,10.66,2.47,3.81,3.87,7.95,5.16,12.84,5.47,1.07.07,2.23-.49,3.26-.95,1.47-.66,2.82-1.59,4.29-2.24,1.16-.51,2.43-.79,3.77-1.2-1.77-4.12-8.16.24-8.09-6.14.07-6.21,6.61-1.55,8.05-6.12Z"/>
      <path class="cls-1" d="m68.62,42.15c2.95-.2,5.2-.35,7.44-.51l.37,1.68c-1.14.7-2.28,1.39-3.51,2.15,0,.18-.13.58.02.78,4.94,6.84,4.07,14.52,2.98,22.12-.19,1.33-2.11,3.19-3.41,3.36-1.39.18-3.91-1.02-4.34-2.2-1.22-3.35-3.55-3.45-6.35-3.43-8.66.06-17.32.07-25.98-.01-2.69-.02-4.63.36-5.92,3.3-.56,1.29-3.19,2.41-4.77,2.28-1.16-.09-2.88-2.23-3.1-3.65-1.16-7.63-1.73-15.28,3.46-22.38-1.31-.67-2.5-1.28-3.68-1.88.03-.47.07-.94.1-1.4h7.18c.17-.52.64-1.72.99-2.95,1.36-4.82,4.49-8.02,9.44-8.39,6.11-.46,12.31-.58,18.42-.12,6.92.51,9.82,5.51,10.66,11.26Zm-19.7,1.89s0,.04,0,.06c3.83,0,7.66.15,11.48-.06,1.85-.1,3.67-.87,5.5-1.34-.67-2.15-.88-4.64-2.13-6.36-1.16-1.6-3.38-3.24-5.23-3.37-6.27-.43-12.7-.87-18.84.11-2.72.43-5.36,3.94-7.19,6.63-1.68,2.48-.37,4.38,2.93,4.34,4.49-.05,8.99-.01,13.48-.01Zm-.25,15.95s0-.03,0-.04c2.81,0,5.64.22,8.41-.12.94-.11,2.36-1.62,2.37-2.5,0-.85-1.48-2.43-2.37-2.47-5.28-.25-10.58-.26-15.85-.06-.95.04-1.84,1.49-2.76,2.28.92.97,1.73,2.59,2.79,2.77,2.41.42,4.94.13,7.42.13Zm-21.34-11.6c-1.06,1.32-1.67,2.09-2.29,2.85,2.55,1.23,5.04,2.61,7.68,3.59.56.21,1.65-1.05,2.5-1.63-2.49-1.52-4.99-3.04-7.89-4.81Zm42.79.03c-2.76,1.84-5.04,3.36-7.32,4.88,1.05.52,2.34,1.7,3.09,1.42,2.47-.9,4.74-2.34,7.09-3.57-.79-.76-1.58-1.51-2.86-2.73Z"/>
      <path class="cls-1" d="m78.86,8.39c-1.45,4.57-7.98-.09-8.05,6.12-.07,6.38,6.32,2.02,8.09,6.14-1.34.41-2.61.69-3.77,1.2-1.47.65-2.82,1.58-4.29,2.24-1.03.46-2.19,1.02-3.26.95-4.88-.31-9.02-1.6-12.84-5.47-2.19-2.22-7.12-2.81-10.66-2.47-18.73,1.83-32.46,19.21-31.14,38.75,1.25,18.57,17.7,33.44,36.71,33.17,18.69-.26,34.69-15.56,35.48-33.94.4-9.36-1.24-18.2-6.76-26.03,8.18,8.14,11.9,17.93,10.24,29.42-3.02,20.85-21.59,35.74-42.4,34.25-20.52-1.47-36.79-18.51-37.13-38.86-.35-21.29,14.91-38.46,36.01-40.92,4.43-.52,8.83-1.52,12.21-5.37,3.36-3.83,9.41-3.53,14.68-.68,1.95,1.05,4.48,1.01,6.89,1.5Z"/>
      <path class="cls-2" d="m48.93,44.04c-4.49,0-8.99-.04-13.48.01-3.3.04-4.62-1.87-2.93-4.34,1.83-2.69,4.47-6.2,7.19-6.63,6.14-.98,12.57-.53,18.84-.11,1.85.13,4.07,1.77,5.23,3.37,1.25,1.73,1.47,4.21,2.13,6.36-1.83.47-3.65,1.23-5.5,1.34-3.82.21-7.65.06-11.48.06,0-.02,0-.04,0-.06Z"/>
      <path class="cls-2" d="m48.67,59.99c-2.48,0-5.01.29-7.42-.13-1.06-.18-1.87-1.8-2.79-2.77.92-.8,1.81-2.25,2.76-2.28,5.28-.21,10.58-.2,15.85.06.89.04,2.38,1.62,2.37,2.47,0,.88-1.43,2.38-2.37,2.5-2.77.34-5.6.12-8.41.12,0,.01,0,.03,0,.04Z"/>
      <path class="cls-2" d="m27.34,48.39c2.9,1.77,5.4,3.29,7.89,4.81-.85.58-1.94,1.84-2.5,1.63-2.64-.98-5.13-2.35-7.68-3.59.62-.77,1.23-1.54,2.29-2.85Z"/>
      <path class="cls-2" d="m70.13,48.41c1.28,1.22,2.07,1.98,2.86,2.73-2.35,1.23-4.62,2.67-7.09,3.57-.76.28-2.05-.91-3.09-1.42,2.28-1.52,4.56-3.04,7.32-4.88Z"/>
    </g>
  </g>
</svg>